<svg xmlns="http://www.w3.org/2000/svg" viewBox="0 0 200 200" width="100%" height="100%">
  <rect width="100%" height="100%" fill="none"/>
  <!-- Palm Tree -->
  <path d="M135 125 Q138 85 145 50" stroke="#78350F" stroke-width="6" fill="none"/>
  <path d="M145 50 C125 35 105 45 100 50 C120 55 135 55 145 50 Z" fill="#16A34A"/>
  <path d="M145 50 C165 35 185 45 190 50 C170 55 155 55 145 50 Z" fill="#15803D"/>
  <path d="M145 50 C140 25 155 10 160 10 C155 28 152 40 145 50 Z" fill="#22C55E"/>
  <!-- Player Silhouette Bicycle Kick -->
  <path d="M60 90 C70 70 95 65 110 80 L90 100 L65 110 Z" fill="#B91C1C"/>
  <circle cx="65" cy="55" r="7" fill="#B91C1C"/>
  <circle cx="50" cy="45" r="8" fill="#EA580C" stroke="#FFF" stroke-width="2"/>
  <!-- Green Beach Soccer Text -->
  <text x="100" y="152" font-family="'Poppins', 'Arial Black', sans-serif" font-weight="900" font-size="18" fill="#16A34A" text-anchor="middle" letter-spacing="1">BEACH</text>
  <text x="100" y="172" font-family="'Poppins', 'Arial Black', sans-serif" font-weight="900" font-size="18" fill="#15803D" text-anchor="middle" letter-spacing="1">SOCCER</text>
  <text x="100" y="188" font-family="'Inter', sans-serif" font-weight="700" font-size="12" fill="#166534" text-anchor="middle">League</text>
</svg>